<mxfile host="www.draw.io" modified="2020-01-17T00:46:12.728Z" agent="Mozilla/5.0 (Windows NT 10.0; Win64; x64) AppleWebKit/537.36 (KHTML, like Gecko) Chrome/79.0.3945.117 Safari/537.36" etag="GpI8XNFcJxnMXE3HvpmB" version="12.5.5" type="github">
  <diagram id="KQ-vvtkdDlUK25J-cZJ1" name="Page-1">
    <mxGraphModel dx="1422" dy="804" grid="1" gridSize="10" guides="1" tooltips="1" connect="1" arrows="1" fold="1" page="1" pageScale="1" pageWidth="827" pageHeight="1169" math="0" shadow="0">
      <root>
        <mxCell id="0"/>
        <mxCell id="1" parent="0"/>
        <mxCell id="LL3DQDARqMhSGW0MDvB8-1" value="" style="rounded=0;whiteSpace=wrap;html=1;" vertex="1" parent="1">
          <mxGeometry x="180" y="160" width="120" height="60" as="geometry"/>
        </mxCell>
        <mxCell id="LL3DQDARqMhSGW0MDvB8-2" value="" style="rounded=0;whiteSpace=wrap;html=1;" vertex="1" parent="1">
          <mxGeometry x="210" y="350" width="120" height="60" as="geometry"/>
        </mxCell>
        <mxCell id="LL3DQDARqMhSGW0MDvB8-4" style="edgeStyle=orthogonalEdgeStyle;rounded=0;orthogonalLoop=1;jettySize=auto;html=1;entryX=1;entryY=0.5;entryDx=0;entryDy=0;exitX=0.5;exitY=0;exitDx=0;exitDy=0;" edge="1" parent="1" source="LL3DQDARqMhSGW0MDvB8-3" target="LL3DQDARqMhSGW0MDvB8-1">
          <mxGeometry relative="1" as="geometry"/>
        </mxCell>
        <mxCell id="LL3DQDARqMhSGW0MDvB8-5" style="edgeStyle=orthogonalEdgeStyle;rounded=0;orthogonalLoop=1;jettySize=auto;html=1;entryX=0.5;entryY=0;entryDx=0;entryDy=0;" edge="1" parent="1" source="LL3DQDARqMhSGW0MDvB8-3" target="LL3DQDARqMhSGW0MDvB8-2">
          <mxGeometry relative="1" as="geometry"/>
        </mxCell>
        <mxCell id="LL3DQDARqMhSGW0MDvB8-7" style="edgeStyle=orthogonalEdgeStyle;rounded=0;orthogonalLoop=1;jettySize=auto;html=1;" edge="1" parent="1" source="LL3DQDARqMhSGW0MDvB8-3" target="LL3DQDARqMhSGW0MDvB8-6">
          <mxGeometry relative="1" as="geometry"/>
        </mxCell>
        <mxCell id="LL3DQDARqMhSGW0MDvB8-3" value="" style="rhombus;whiteSpace=wrap;html=1;" vertex="1" parent="1">
          <mxGeometry x="360" y="210" width="80" height="80" as="geometry"/>
        </mxCell>
        <mxCell id="LL3DQDARqMhSGW0MDvB8-6" value="" style="whiteSpace=wrap;html=1;aspect=fixed;" vertex="1" parent="1">
          <mxGeometry x="490" y="360" width="80" height="80" as="geometry"/>
        </mxCell>
      </root>
    </mxGraphModel>
  </diagram>
</mxfile>
